<svg width="55" height="55" viewBox="0 0 55 55" fill="none" xmlns="http://www.w3.org/2000/svg">
<path d="M27.5117 13.4248C19.9577 13.4248 13.6986 19.5759 13.6986 27.2379C13.6986 34.8998 19.8497 41.051 27.5117 41.051C35.1736 41.051 41.3248 34.7919 41.3248 27.2379C41.3248 19.6839 35.0657 13.4248 27.5117 13.4248ZM27.5117 36.0869C22.6555 36.0869 18.6627 32.094 18.6627 27.2379C18.6627 22.3817 22.6555 18.3889 27.5117 18.3889C32.3679 18.3889 36.3607 22.3817 36.3607 27.2379C36.3607 32.094 32.3679 36.0869 27.5117 36.0869Z" fill="white"/>
<path d="M41.8643 16.2306C43.5927 16.2306 44.9939 14.8295 44.9939 13.1011C44.9939 11.3727 43.5927 9.97156 41.8643 9.97156C40.1359 9.97156 38.7348 11.3727 38.7348 13.1011C38.7348 14.8295 40.1359 16.2306 41.8643 16.2306Z" fill="white"/>
<path d="M49.9579 5.00745C47.1522 2.09375 43.1593 0.582947 38.6269 0.582947H16.3965C7.00789 0.582947 0.74884 6.842 0.74884 16.2306V38.3531C0.74884 42.9934 2.25965 46.9863 5.28126 49.9C8.19495 52.7057 12.0799 54.1086 16.5044 54.1086H38.519C43.1593 54.1086 47.0442 52.5978 49.85 49.9C52.7637 47.0942 54.2745 43.1013 54.2745 38.461V16.2306C54.2745 11.6982 52.7637 7.81323 49.9579 5.00745ZM49.5263 38.461C49.5263 41.8064 48.3392 44.5042 46.3968 46.3388C44.4543 48.1733 41.7564 49.1446 38.519 49.1446H16.5044C13.2669 49.1446 10.5691 48.1733 8.62661 46.3388C6.68415 44.3963 5.71292 41.6984 5.71292 38.3531V16.2306C5.71292 12.9931 6.68415 10.2953 8.62661 8.3528C10.4612 6.51825 13.2669 5.54702 16.5044 5.54702H38.7348C41.9723 5.54702 44.6701 6.51826 46.6126 8.46072C48.4471 10.4032 49.5263 13.1011 49.5263 16.2306V38.461Z" fill="white"/>
</svg>
