<svg width="51" height="34" viewBox="0 0 51 34" fill="none" xmlns="http://www.w3.org/2000/svg">
<path fill-rule="evenodd" clip-rule="evenodd" d="M26.1008 7.1066C28.98 3.2129 32.1632 0.147583 36.2337 0.147583C43.9187 0.147583 50.2479 9.92991 50.251 21.5769C50.251 28.6817 47.1919 33.1339 41.6973 33.1339C36.9101 33.1339 34.2667 30.4471 29.5229 22.5107L27.4535 19.0266L27.0874 18.4154C26.5478 17.5033 25.9996 16.5963 25.4431 15.6944L21.7883 22.1477C16.5977 31.2227 13.6751 33.1339 9.61698 33.1339C3.97654 33.1339 0.607178 28.7438 0.607178 21.7816C0.607178 10.659 6.79676 0.147583 14.8727 0.147583C15.8624 0.147583 16.8118 0.268582 17.7394 0.526094C18.7012 0.792913 19.6351 1.20865 20.5721 1.78883C22.3622 2.90265 24.1524 4.62766 26.1008 7.1066ZM30.8043 14.0067C30.0224 12.7346 29.2716 11.565 28.5487 10.4915L28.5301 10.4667C31.1518 6.41783 33.3173 4.40428 35.8893 4.40428C41.235 4.40428 45.5134 12.2754 45.5134 21.943C45.5134 25.6288 44.3035 27.7665 41.8059 27.7665C39.4076 27.7665 38.2628 26.1842 33.7083 18.8621L30.8043 14.0067ZM15.6421 5.59566C17.8915 5.90591 19.9392 7.56267 22.9021 11.8039C21.1925 14.4217 19.5015 17.0517 17.8294 19.6936C13.6193 26.2896 12.1642 27.7696 9.82174 27.7696C7.41106 27.7696 5.97458 25.6536 5.97458 21.8747C5.97458 13.8019 10.0017 5.54291 14.8044 5.54291C15.0868 5.54291 15.366 5.55843 15.6421 5.59566Z" fill="white"/>
</svg>
