<svg width="57" height="58" viewBox="0 0 57 58" fill="none" xmlns="http://www.w3.org/2000/svg">
<path d="M39.0229 23.6228C43.4259 26.7836 48.7106 28.482 54.131 28.4781V17.6885C50.1241 17.6885 46.2813 16.097 43.448 13.2642C40.6146 10.4313 39.0229 6.58918 39.0229 2.58295H28.2314V37.1099C28.2313 38.4615 27.8685 39.7883 27.1807 40.9519C26.493 42.1155 25.5055 43.0733 24.3214 43.7253C23.1372 44.3773 21.7998 44.6996 20.4486 44.6587C19.0974 44.6177 17.7819 44.215 16.6394 43.4925C15.4969 42.77 14.5693 41.7542 13.9533 40.5511C13.3373 39.348 13.0554 38.0016 13.1372 36.6525C13.219 35.3033 13.6614 34.0009 14.4182 32.8809C15.175 31.761 16.2186 30.8647 17.44 30.2854V19.0642C14.0044 19.68 10.8159 21.2629 8.24867 23.6271C5.68141 25.9914 3.84198 29.0387 2.94628 32.4116C2.05058 35.7844 2.13579 39.3428 3.19191 42.6689C4.24803 45.995 6.23122 48.9509 8.9087 51.1895C11.5862 53.4282 14.8468 54.8568 18.3079 55.3075C21.7689 55.7582 25.2868 55.2125 28.4485 53.7342C31.6102 52.256 34.2845 49.9067 36.1575 46.962C38.0306 44.0174 39.0246 40.5996 39.0229 37.1099V23.6228Z" stroke="white" stroke-width="4.31659" stroke-linecap="round" stroke-linejoin="round"/>
</svg>
