<svg xmlns="http://www.w3.org/2000/svg" xmlns:xlink="http://www.w3.org/1999/xlink" width="1000" zoomAndPan="magnify" viewBox="0 0 750 749.999995" height="1000" preserveAspectRatio="xMidYMid meet" version="1.2"><defs><clipPath id="7426b2e507"><path d="M 189.816406 174.871094 L 556.578125 174.871094 L 556.578125 575.132812 L 189.816406 575.132812 Z M 189.816406 174.871094 "/></clipPath><filter x="0%" y="0%" width="100%" filterUnits="objectBoundingBox" id="6a6d879d5b" height="100%"><feColorMatrix values="0 0 0 0 1 0 0 0 0 1 0 0 0 0 1 0 0 0 1 0" type="matrix" in="SourceGraphic"/></filter><clipPath id="18adcc9da0"><rect x="0" width="515" y="0" height="134"/></clipPath><clipPath id="6492ce7f64"><rect x="0" width="46" y="0" height="134"/></clipPath><clipPath id="d33b95b5a9"><rect x="0" width="149" y="0" height="74"/></clipPath><clipPath id="fd750f6350"><rect x="0" width="154" y="0" height="74"/></clipPath></defs><g id="2bb0d0ca26"><g clip-rule="nonzero" clip-path="url(#7426b2e507)"><path style=" stroke:none;fill-rule:nonzero;fill:#ffffff;fill-opacity:1;" d="M 189.992188 257.960938 L 189.992188 255.679688 L 305.984375 255.679688 L 305.984375 257.960938 C 279.214844 257.960938 279.214844 271.191406 295.484375 306.332031 C 295.910156 307.230469 296.386719 308.234375 296.898438 309.320312 C 288.695312 329.257812 280.636719 348.761719 273.523438 365.835938 C 262.769531 343.183594 254.558594 325.851562 251.402344 319.101562 C 237.757812 289.894531 223.058594 257.960938 189.992188 257.960938 Z M 444.542969 255.671875 L 444.542969 257.953125 C 480.234375 257.953125 483.90625 312.253906 470.261719 345.101562 C 465.535156 355.140625 424.074219 457.359375 397.832031 522.148438 C 397.832031 522.148438 346.425781 413.839844 315.488281 348.5625 C 303.539062 377.828125 295.867188 396.398438 292.171875 405.039062 C 327.835938 479.996094 373.160156 575.082031 373.160156 575.082031 L 378.40625 575.082031 C 378.40625 575.082031 462.386719 368.371094 480.226562 328.675781 C 498.074219 288.976562 523.261719 263.417969 556.328125 257.953125 L 556.328125 255.671875 Z M 494.933594 430.859375 C 491.777344 424.109375 483.566406 406.777344 472.804688 384.132812 C 465.691406 401.199219 457.632812 420.714844 449.429688 440.648438 C 449.941406 441.734375 450.417969 442.738281 450.84375 443.640625 C 467.113281 478.777344 467.113281 492.011719 440.34375 492.011719 L 440.34375 494.289062 L 556.335938 494.289062 L 556.335938 492.011719 C 523.277344 492 508.578125 460.058594 494.933594 430.859375 Z M 398.429688 227.882812 C 383.617188 196.792969 373.167969 174.871094 373.167969 174.871094 L 367.914062 174.871094 C 367.914062 174.871094 283.945312 381.574219 266.09375 421.269531 C 248.246094 460.96875 223.066406 486.527344 189.992188 492 L 189.992188 494.28125 L 301.792969 494.28125 L 301.792969 492 C 266.101562 492 262.429688 437.699219 276.066406 404.851562 C 280.792969 394.804688 322.253906 292.59375 348.503906 227.804688 C 348.503906 227.804688 360.527344 253.128906 376.4375 286.671875 C 393.433594 322.488281 414.867188 367.679688 430.84375 401.390625 C 442.792969 372.125 450.460938 353.554688 454.160156 344.914062 C 435.617188 305.949219 414.46875 261.546875 398.429688 227.882812 Z M 398.429688 227.882812 "/></g><g mask="url(#62efa69eb9)" transform="matrix(1,0,0,1,117,350)"><g clip-path="url(#18adcc9da0)"><g style="fill:#ffffff;fill-opacity:1;"><g transform="translate(4.536842, 105.639385)"><path style="stroke:none" d="M 18.09375 -1.03125 L 18.09375 -0.109375 L -2.40625 -0.109375 L -2.40625 -1.03125 C -2.40625 -1.03125 -1.734375 -1.085938 -0.390625 -1.203125 C 0.941406 -1.316406 2.367188 -1.660156 3.890625 -2.234375 C 5.421875 -2.804688 6.453125 -3.703125 6.984375 -4.921875 L 38.609375 -77.546875 L 39.640625 -77.546875 L 39.640625 -77.4375 C 39.785156 -77.125 40.410156 -75.628906 41.515625 -72.953125 C 42.628906 -70.285156 44.0625 -66.851562 45.8125 -62.65625 C 47.570312 -58.457031 49.519531 -53.851562 51.65625 -48.84375 C 53.800781 -43.84375 56 -38.820312 58.25 -33.78125 C 60.5 -28.75 62.65625 -24.054688 64.71875 -19.703125 C 66.78125 -15.347656 68.613281 -11.679688 70.21875 -8.703125 C 71.820312 -5.722656 73.039062 -3.890625 73.875 -3.203125 C 75.175781 -2.140625 76.53125 -1.507812 77.9375 -1.3125 C 79.351562 -1.125 80.0625 -1.03125 80.0625 -1.03125 L 80.0625 -0.109375 L 76.859375 -0.109375 C 74.035156 -0.109375 71.078125 -0.0859375 67.984375 -0.046875 C 64.890625 -0.015625 61.929688 -0.378906 59.109375 -1.140625 C 56.285156 -1.910156 53.84375 -3.515625 51.78125 -5.953125 C 50.476562 -7.554688 49.140625 -9.75 47.765625 -12.53125 C 46.390625 -15.320312 45.109375 -18.164062 43.921875 -21.0625 C 42.742188 -23.96875 41.734375 -26.378906 40.890625 -28.296875 L 19.46875 -28.296875 C 19.46875 -28.296875 19.179688 -27.609375 18.609375 -26.234375 C 18.035156 -24.859375 17.289062 -23.117188 16.375 -21.015625 C 15.457031 -18.921875 14.519531 -16.765625 13.5625 -14.546875 C 12.613281 -12.328125 11.773438 -10.335938 11.046875 -8.578125 C 10.328125 -6.828125 9.8125 -5.609375 9.5 -4.921875 C 9.125 -3.929688 9.335938 -3.164062 10.140625 -2.625 C 10.941406 -2.09375 11.972656 -1.710938 13.234375 -1.484375 C 14.492188 -1.253906 15.617188 -1.117188 16.609375 -1.078125 C 17.597656 -1.046875 18.09375 -1.03125 18.09375 -1.03125 Z M 40.09375 -30.125 L 30.46875 -53.375 L 20.28125 -30.125 Z M 40.09375 -30.125 "/></g></g><g style="fill:#ffffff;fill-opacity:1;"><g transform="translate(69.24938, 105.639385)"><path style="stroke:none" d="M 71.140625 -72.625 L 39.640625 0 L 38.609375 0 C 38.609375 0 38.609375 -0.015625 38.609375 -0.046875 C 38.609375 -0.0859375 38.566406 -0.109375 38.484375 -0.109375 C 38.335938 -0.421875 37.707031 -1.910156 36.59375 -4.578125 C 35.488281 -7.253906 34.054688 -10.691406 32.296875 -14.890625 C 30.546875 -19.085938 28.597656 -23.664062 26.453125 -28.625 C 24.316406 -33.59375 22.125 -38.613281 19.875 -43.6875 C 17.625 -48.769531 15.46875 -53.488281 13.40625 -57.84375 C 11.34375 -62.195312 9.507812 -65.84375 7.90625 -68.78125 C 6.300781 -71.726562 5.078125 -73.539062 4.234375 -74.21875 C 3.015625 -75.289062 1.695312 -75.941406 0.28125 -76.171875 C -1.125 -76.398438 -1.828125 -76.515625 -1.828125 -76.515625 L -1.828125 -77.3125 L 1.265625 -77.3125 C 4.085938 -77.394531 7.0625 -77.453125 10.1875 -77.484375 C 13.320312 -77.523438 16.320312 -77.160156 19.1875 -76.390625 C 22.050781 -75.628906 24.472656 -74.03125 26.453125 -71.59375 C 27.828125 -69.988281 29.164062 -67.769531 30.46875 -64.9375 C 31.769531 -62.113281 33.007812 -59.269531 34.1875 -56.40625 C 35.375 -53.550781 36.390625 -51.164062 37.234375 -49.25 L 38.03125 -47.421875 L 47.65625 -24.0625 L 57.953125 -47.3125 L 58.640625 -49.25 C 58.640625 -49.25 58.945312 -49.9375 59.5625 -51.3125 C 60.175781 -52.6875 60.921875 -54.421875 61.796875 -56.515625 C 62.671875 -58.617188 63.601562 -60.78125 64.59375 -63 C 65.59375 -65.21875 66.453125 -67.203125 67.171875 -68.953125 C 67.898438 -70.710938 68.421875 -71.9375 68.734375 -72.625 C 69.109375 -73.613281 68.894531 -74.375 68.09375 -74.90625 C 67.289062 -75.445312 66.257812 -75.832031 65 -76.0625 C 63.738281 -76.289062 62.59375 -76.421875 61.5625 -76.453125 C 60.53125 -76.492188 60.015625 -76.515625 60.015625 -76.515625 L 60.015625 -77.3125 L 80.53125 -77.3125 L 80.53125 -76.515625 C 80.53125 -76.515625 79.859375 -76.4375 78.515625 -76.28125 C 77.179688 -76.132812 75.769531 -75.789062 74.28125 -75.25 C 72.789062 -74.71875 71.742188 -73.84375 71.140625 -72.625 Z M 71.140625 -72.625 "/></g></g><g style="fill:#ffffff;fill-opacity:1;"><g transform="translate(145.43879, 105.639385)"><path style="stroke:none" d=""/></g></g><g style="fill:#ffffff;fill-opacity:1;"><g transform="translate(161.473937, 105.639385)"><path style="stroke:none" d=""/></g></g><g style="fill:#ffffff;fill-opacity:1;"><g transform="translate(177.509084, 105.639385)"><path style="stroke:none" d=""/></g></g><g style="fill:#ffffff;fill-opacity:1;"><g transform="translate(193.544231, 105.639385)"><path style="stroke:none" d=""/></g></g><g style="fill:#ffffff;fill-opacity:1;"><g transform="translate(209.579377, 105.639385)"><path style="stroke:none" d=""/></g></g><g style="fill:#ffffff;fill-opacity:1;"><g transform="translate(225.614524, 105.639385)"><path style="stroke:none" d=""/></g></g><g style="fill:#ffffff;fill-opacity:1;"><g transform="translate(241.649671, 105.639385)"><path style="stroke:none" d=""/></g></g><g style="fill:#ffffff;fill-opacity:1;"><g transform="translate(257.684818, 105.639385)"><path style="stroke:none" d=""/></g></g><g style="fill:#ffffff;fill-opacity:1;"><g transform="translate(273.719964, 105.639385)"><path style="stroke:none" d=""/></g></g><g style="fill:#ffffff;fill-opacity:1;"><g transform="translate(289.755111, 105.639385)"><path style="stroke:none" d=""/></g></g><g style="fill:#ffffff;fill-opacity:1;"><g transform="translate(305.790258, 105.639385)"><path style="stroke:none" d=""/></g></g><g style="fill:#ffffff;fill-opacity:1;"><g transform="translate(321.825405, 105.639385)"><path style="stroke:none" d=""/></g></g><g style="fill:#ffffff;fill-opacity:1;"><g transform="translate(337.860551, 105.639385)"><path style="stroke:none" d=""/></g></g><g style="fill:#ffffff;fill-opacity:1;"><g transform="translate(353.895698, 105.639385)"><path style="stroke:none" d=""/></g></g><g style="fill:#ffffff;fill-opacity:1;"><g transform="translate(369.947573, 105.639385)"><path style="stroke:none" d="M 71.140625 -72.625 L 39.640625 0 L 38.609375 0 C 38.609375 0 38.609375 -0.015625 38.609375 -0.046875 C 38.609375 -0.0859375 38.566406 -0.109375 38.484375 -0.109375 C 38.335938 -0.421875 37.707031 -1.910156 36.59375 -4.578125 C 35.488281 -7.253906 34.054688 -10.691406 32.296875 -14.890625 C 30.546875 -19.085938 28.597656 -23.664062 26.453125 -28.625 C 24.316406 -33.59375 22.125 -38.613281 19.875 -43.6875 C 17.625 -48.769531 15.46875 -53.488281 13.40625 -57.84375 C 11.34375 -62.195312 9.507812 -65.84375 7.90625 -68.78125 C 6.300781 -71.726562 5.078125 -73.539062 4.234375 -74.21875 C 3.015625 -75.289062 1.695312 -75.941406 0.28125 -76.171875 C -1.125 -76.398438 -1.828125 -76.515625 -1.828125 -76.515625 L -1.828125 -77.3125 L 1.265625 -77.3125 C 4.085938 -77.394531 7.0625 -77.453125 10.1875 -77.484375 C 13.320312 -77.523438 16.320312 -77.160156 19.1875 -76.390625 C 22.050781 -75.628906 24.472656 -74.03125 26.453125 -71.59375 C 27.828125 -69.988281 29.164062 -67.769531 30.46875 -64.9375 C 31.769531 -62.113281 33.007812 -59.269531 34.1875 -56.40625 C 35.375 -53.550781 36.390625 -51.164062 37.234375 -49.25 L 38.03125 -47.421875 L 47.65625 -24.0625 L 57.953125 -47.3125 L 58.640625 -49.25 C 58.640625 -49.25 58.945312 -49.9375 59.5625 -51.3125 C 60.175781 -52.6875 60.921875 -54.421875 61.796875 -56.515625 C 62.671875 -58.617188 63.601562 -60.78125 64.59375 -63 C 65.59375 -65.21875 66.453125 -67.203125 67.171875 -68.953125 C 67.898438 -70.710938 68.421875 -71.9375 68.734375 -72.625 C 69.109375 -73.613281 68.894531 -74.375 68.09375 -74.90625 C 67.289062 -75.445312 66.257812 -75.832031 65 -76.0625 C 63.738281 -76.289062 62.59375 -76.421875 61.5625 -76.453125 C 60.53125 -76.492188 60.015625 -76.515625 60.015625 -76.515625 L 60.015625 -77.3125 L 80.53125 -77.3125 L 80.53125 -76.515625 C 80.53125 -76.515625 79.859375 -76.4375 78.515625 -76.28125 C 77.179688 -76.132812 75.769531 -75.789062 74.28125 -75.25 C 72.789062 -74.71875 71.742188 -73.84375 71.140625 -72.625 Z M 71.140625 -72.625 "/></g></g><g style="fill:#ffffff;fill-opacity:1;"><g transform="translate(433.514767, 105.639385)"><path style="stroke:none" d="M 18.09375 -1.03125 L 18.09375 -0.109375 L -2.40625 -0.109375 L -2.40625 -1.03125 C -2.40625 -1.03125 -1.734375 -1.085938 -0.390625 -1.203125 C 0.941406 -1.316406 2.367188 -1.660156 3.890625 -2.234375 C 5.421875 -2.804688 6.453125 -3.703125 6.984375 -4.921875 L 38.609375 -77.546875 L 39.640625 -77.546875 L 39.640625 -77.4375 C 39.785156 -77.125 40.410156 -75.628906 41.515625 -72.953125 C 42.628906 -70.285156 44.0625 -66.851562 45.8125 -62.65625 C 47.570312 -58.457031 49.519531 -53.851562 51.65625 -48.84375 C 53.800781 -43.84375 56 -38.820312 58.25 -33.78125 C 60.5 -28.75 62.65625 -24.054688 64.71875 -19.703125 C 66.78125 -15.347656 68.613281 -11.679688 70.21875 -8.703125 C 71.820312 -5.722656 73.039062 -3.890625 73.875 -3.203125 C 75.175781 -2.140625 76.53125 -1.507812 77.9375 -1.3125 C 79.351562 -1.125 80.0625 -1.03125 80.0625 -1.03125 L 80.0625 -0.109375 L 76.859375 -0.109375 C 74.035156 -0.109375 71.078125 -0.0859375 67.984375 -0.046875 C 64.890625 -0.015625 61.929688 -0.378906 59.109375 -1.140625 C 56.285156 -1.910156 53.84375 -3.515625 51.78125 -5.953125 C 50.476562 -7.554688 49.140625 -9.75 47.765625 -12.53125 C 46.390625 -15.320312 45.109375 -18.164062 43.921875 -21.0625 C 42.742188 -23.96875 41.734375 -26.378906 40.890625 -28.296875 L 19.46875 -28.296875 C 19.46875 -28.296875 19.179688 -27.609375 18.609375 -26.234375 C 18.035156 -24.859375 17.289062 -23.117188 16.375 -21.015625 C 15.457031 -18.921875 14.519531 -16.765625 13.5625 -14.546875 C 12.613281 -12.328125 11.773438 -10.335938 11.046875 -8.578125 C 10.328125 -6.828125 9.8125 -5.609375 9.5 -4.921875 C 9.125 -3.929688 9.335938 -3.164062 10.140625 -2.625 C 10.941406 -2.09375 11.972656 -1.710938 13.234375 -1.484375 C 14.492188 -1.253906 15.617188 -1.117188 16.609375 -1.078125 C 17.597656 -1.046875 18.09375 -1.03125 18.09375 -1.03125 Z M 40.09375 -30.125 L 30.46875 -53.375 L 20.28125 -30.125 Z M 40.09375 -30.125 "/></g></g></g><mask id="62efa69eb9"><g filter="url(#6a6d879d5b)"><rect x="0" width="750" y="0" height="749.999995" style="fill:#000000;fill-opacity:0.75;stroke:none;"/></g></mask></g><g mask="url(#88b6e44cb5)" transform="matrix(1,0,0,1,369,349)"><g clip-path="url(#6492ce7f64)"><g style="fill:#ffffff;fill-opacity:1;"><g transform="translate(1.381959, 104.468309)"><path style="stroke:none" d="M 37.765625 0 L 5.84375 0 L 5.84375 -0.796875 C 5.84375 -0.796875 6.179688 -0.796875 6.859375 -0.796875 C 7.546875 -0.796875 8.363281 -0.945312 9.3125 -1.25 C 10.269531 -1.5625 11.09375 -2.175781 11.78125 -3.09375 C 12.46875 -4.007812 12.8125 -5.34375 12.8125 -7.09375 L 12.59375 -69.6875 C 12.59375 -71.445312 12.25 -72.765625 11.5625 -73.640625 C 10.875 -74.515625 10.070312 -75.101562 9.15625 -75.40625 C 8.238281 -75.71875 7.4375 -75.875 6.75 -75.875 C 6.0625 -75.875 5.71875 -75.875 5.71875 -75.875 L 5.71875 -76.78125 L 37.3125 -76.78125 L 37.3125 -75.875 C 37.3125 -75.875 36.984375 -75.875 36.328125 -75.875 C 35.679688 -75.875 34.9375 -75.71875 34.09375 -75.40625 C 33.257812 -75.101562 32.515625 -74.515625 31.859375 -73.640625 C 31.210938 -72.765625 30.890625 -71.445312 30.890625 -69.6875 L 30.890625 -7.09375 C 30.890625 -5.34375 31.234375 -4.007812 31.921875 -3.09375 C 32.609375 -2.175781 33.410156 -1.5625 34.328125 -1.25 C 35.242188 -0.945312 36.046875 -0.796875 36.734375 -0.796875 C 37.421875 -0.796875 37.765625 -0.796875 37.765625 -0.796875 Z M 37.765625 0 "/></g></g></g><mask id="88b6e44cb5"><g filter="url(#6a6d879d5b)"><rect x="0" width="750" y="0" height="749.999995" style="fill:#000000;fill-opacity:0.75;stroke:none;"/></g></mask></g><g mask="url(#229735d777)" transform="matrix(1,0,0,1,175,495)"><g clip-path="url(#d33b95b5a9)"><g style="fill:#ffffff;fill-opacity:1;"><g transform="translate(1.979353, 51.674386)"><path style="stroke:none" d="M 12.796875 0.734375 C 10.984375 0.734375 9.222656 0.222656 7.515625 -0.796875 C 5.804688 -1.816406 4.398438 -3.367188 3.296875 -5.453125 C 2.203125 -7.535156 1.65625 -10.160156 1.65625 -13.328125 C 1.65625 -16.628906 2.289062 -19.425781 3.5625 -21.71875 C 4.84375 -24.007812 6.597656 -25.753906 8.828125 -26.953125 C 11.054688 -28.148438 13.59375 -28.75 16.4375 -28.75 C 18.144531 -28.75 19.9375 -28.507812 21.8125 -28.03125 L 21.8125 -34.03125 L 26.671875 -34.03125 L 26.671875 0 L 21.8125 0 L 21.8125 -6.203125 C 21.070312 -3.878906 19.859375 -2.140625 18.171875 -0.984375 C 16.492188 0.160156 14.703125 0.734375 12.796875 0.734375 Z M 14.40625 -0.4375 C 16.113281 -0.4375 17.6875 -1.175781 19.125 -2.65625 C 20.5625 -4.144531 21.457031 -6.363281 21.8125 -9.3125 L 21.8125 -27.296875 C 20.363281 -27.679688 18.992188 -27.875 17.703125 -27.875 C 14.273438 -27.875 11.5 -26.617188 9.375 -24.109375 C 7.257812 -21.609375 6.203125 -18 6.203125 -13.28125 C 6.203125 -10.4375 6.597656 -8.0625 7.390625 -6.15625 C 8.179688 -4.25 9.207031 -2.816406 10.46875 -1.859375 C 11.726562 -0.910156 13.039062 -0.4375 14.40625 -0.4375 Z M 14.40625 -0.4375 "/></g></g><g style="fill:#ffffff;fill-opacity:1;"><g transform="translate(33.050789, 51.674386)"><path style="stroke:none" d="M 5.1875 -31.03125 C 4.445312 -31.03125 3.804688 -31.296875 3.265625 -31.828125 C 2.734375 -32.359375 2.46875 -33 2.46875 -33.75 C 2.46875 -34.488281 2.734375 -35.125 3.265625 -35.65625 C 3.804688 -36.1875 4.445312 -36.453125 5.1875 -36.453125 C 5.925781 -36.453125 6.5625 -36.1875 7.09375 -35.65625 C 7.632812 -35.125 7.90625 -34.488281 7.90625 -33.75 C 7.90625 -33 7.632812 -32.359375 7.09375 -31.828125 C 6.5625 -31.296875 5.925781 -31.03125 5.1875 -31.03125 Z M 7.609375 0 L 2.765625 0 L 2.765625 -28.03125 L 7.609375 -28.03125 Z M 7.609375 0 "/></g></g><g style="fill:#ffffff;fill-opacity:1;"><g transform="translate(43.569453, 51.674386)"><path style="stroke:none" d="M 8.828125 11.875 C 6.628906 11.875 4.316406 11.582031 1.890625 11 L 2.625 7.609375 C 4.457031 8.804688 6.148438 9.671875 7.703125 10.203125 C 9.253906 10.734375 10.644531 11 11.875 11 C 13.976562 11 15.75 10.414062 17.1875 9.25 C 18.625 8.09375 19.707031 6.492188 20.4375 4.453125 C 21.164062 2.421875 21.53125 0.113281 21.53125 -2.46875 L 21.53125 -5.765625 L 21.375 -5.765625 C 20.570312 -3.671875 19.363281 -2.046875 17.75 -0.890625 C 16.132812 0.253906 14.40625 0.828125 12.5625 0.828125 C 10.8125 0.828125 9.117188 0.332031 7.484375 -0.65625 C 5.859375 -1.644531 4.523438 -3.21875 3.484375 -5.375 C 2.453125 -7.539062 1.9375 -10.351562 1.9375 -13.8125 C 1.9375 -16.757812 2.460938 -19.351562 3.515625 -21.59375 C 4.566406 -23.84375 5.988281 -25.601562 7.78125 -26.875 C 9.570312 -28.15625 11.582031 -28.796875 13.8125 -28.796875 C 15.007812 -28.796875 16.265625 -28.578125 17.578125 -28.140625 C 18.890625 -27.703125 20.207031 -27.015625 21.53125 -26.078125 L 21.53125 -28.03125 L 26.375 -28.03125 L 26.375 -5.1875 C 26.375 -1.695312 25.640625 1.320312 24.171875 3.875 C 22.703125 6.425781 20.648438 8.394531 18.015625 9.78125 C 15.378906 11.175781 12.316406 11.875 8.828125 11.875 Z M 13.921875 -0.625 C 15.046875 -0.625 16.140625 -0.945312 17.203125 -1.59375 C 18.273438 -2.238281 19.195312 -3.203125 19.96875 -4.484375 C 20.75 -5.765625 21.269531 -7.320312 21.53125 -9.15625 L 21.53125 -25.265625 C 20.363281 -26.097656 19.253906 -26.71875 18.203125 -27.125 C 17.148438 -27.53125 16.171875 -27.734375 15.265625 -27.734375 C 13.878906 -27.734375 12.632812 -27.351562 11.53125 -26.59375 C 10.4375 -25.832031 9.523438 -24.796875 8.796875 -23.484375 C 8.066406 -22.179688 7.507812 -20.703125 7.125 -19.046875 C 6.738281 -17.398438 6.546875 -15.691406 6.546875 -13.921875 C 6.546875 -11.171875 6.875 -8.800781 7.53125 -6.8125 C 8.195312 -4.820312 9.085938 -3.289062 10.203125 -2.21875 C 11.316406 -1.15625 12.554688 -0.625 13.921875 -0.625 Z M 13.921875 -0.625 "/></g></g><g style="fill:#ffffff;fill-opacity:1;"><g transform="translate(73.477381, 51.674386)"><path style="stroke:none" d="M 5.1875 -31.03125 C 4.445312 -31.03125 3.804688 -31.296875 3.265625 -31.828125 C 2.734375 -32.359375 2.46875 -33 2.46875 -33.75 C 2.46875 -34.488281 2.734375 -35.125 3.265625 -35.65625 C 3.804688 -36.1875 4.445312 -36.453125 5.1875 -36.453125 C 5.925781 -36.453125 6.5625 -36.1875 7.09375 -35.65625 C 7.632812 -35.125 7.90625 -34.488281 7.90625 -33.75 C 7.90625 -33 7.632812 -32.359375 7.09375 -31.828125 C 6.5625 -31.296875 5.925781 -31.03125 5.1875 -31.03125 Z M 7.609375 0 L 2.765625 0 L 2.765625 -28.03125 L 7.609375 -28.03125 Z M 7.609375 0 "/></g></g><g style="fill:#ffffff;fill-opacity:1;"><g transform="translate(84.965654, 51.674386)"><path style="stroke:none" d="M 13.234375 0.921875 C 11.617188 0.921875 10.078125 0.566406 8.609375 -0.140625 C 7.140625 -0.859375 5.941406 -1.898438 5.015625 -3.265625 C 4.097656 -4.640625 3.640625 -6.300781 3.640625 -8.25 L 3.640625 -27.34375 L 0.734375 -27.34375 L 0.734375 -28.03125 L 4.3125 -28.03125 C 5.507812 -29.351562 6.390625 -30.953125 6.953125 -32.828125 C 7.523438 -34.703125 7.8125 -36.722656 7.8125 -38.890625 L 8.4375 -38.890625 L 8.484375 -28.03125 L 15.90625 -28.03125 L 15.90625 -27.34375 L 8.484375 -27.34375 L 8.484375 -5.046875 C 8.484375 -3.265625 8.882812 -1.921875 9.6875 -1.015625 C 10.5 -0.109375 11.457031 0.34375 12.5625 0.34375 C 13.882812 0.34375 15.25 -0.285156 16.65625 -1.546875 C 18.0625 -2.804688 19.265625 -4.601562 20.265625 -6.9375 L 21.625 -3.96875 C 20.71875 -2.289062 19.492188 -1.054688 17.953125 -0.265625 C 16.421875 0.523438 14.847656 0.921875 13.234375 0.921875 Z M 13.234375 0.921875 "/></g></g><g style="fill:#ffffff;fill-opacity:1;"><g transform="translate(106.536149, 51.674386)"><path style="stroke:none" d="M 11.25 0.734375 C 8.40625 0.734375 6.164062 -0.0546875 4.53125 -1.640625 C 2.894531 -3.234375 2.078125 -5.289062 2.078125 -7.8125 C 2.078125 -9.90625 2.617188 -11.742188 3.703125 -13.328125 C 4.785156 -14.910156 6.238281 -16.273438 8.0625 -17.421875 C 9.894531 -18.578125 11.972656 -19.550781 14.296875 -20.34375 C 16.628906 -21.132812 19.023438 -21.820312 21.484375 -22.40625 C 21.484375 -24.40625 20.992188 -25.890625 20.015625 -26.859375 C 19.046875 -27.828125 17.789062 -28.3125 16.25 -28.3125 C 14.46875 -28.3125 12.628906 -27.785156 10.734375 -26.734375 C 8.847656 -25.679688 7.144531 -24.285156 5.625 -22.546875 L 4.65625 -26.28125 C 6.363281 -27.082031 8.226562 -27.71875 10.25 -28.1875 C 12.269531 -28.65625 14.21875 -28.890625 16.09375 -28.890625 C 17.96875 -28.890625 19.679688 -28.613281 21.234375 -28.0625 C 22.785156 -27.519531 24.019531 -26.617188 24.9375 -25.359375 C 25.863281 -24.097656 26.328125 -22.398438 26.328125 -20.265625 L 26.328125 0 L 21.484375 0 L 21.484375 -4.3125 C 20.085938 -2.820312 18.484375 -1.609375 16.671875 -0.671875 C 14.867188 0.265625 13.0625 0.734375 11.25 0.734375 Z M 13.140625 -0.828125 C 14.554688 -0.828125 16.03125 -1.226562 17.5625 -2.03125 C 19.101562 -2.84375 20.410156 -3.832031 21.484375 -5 L 21.484375 -21.71875 C 17.859375 -20.945312 14.976562 -19.921875 12.84375 -18.640625 C 10.707031 -17.367188 9.1875 -15.882812 8.28125 -14.1875 C 7.382812 -12.488281 6.9375 -10.601562 6.9375 -8.53125 C 6.9375 -5.945312 7.539062 -4.015625 8.75 -2.734375 C 9.957031 -1.460938 11.421875 -0.828125 13.140625 -0.828125 Z M 13.140625 -0.828125 "/></g></g><g style="fill:#ffffff;fill-opacity:1;"><g transform="translate(136.395685, 51.674386)"><path style="stroke:none" d="M 8.25 0 L 3.390625 0 L 3.390625 -34.03125 L 8.25 -34.03125 Z M 8.25 0 "/></g></g></g><mask id="229735d777"><g filter="url(#6a6d879d5b)"><rect x="0" width="750" y="0" height="749.999995" style="fill:#000000;fill-opacity:0.75;stroke:none;"/></g></mask></g><g mask="url(#191bf86a63)" transform="matrix(1,0,0,1,420,495)"><g clip-path="url(#fd750f6350)"><g style="fill:#ffffff;fill-opacity:1;"><g transform="translate(1.446204, 51.674386)"><path style="stroke:none" d="M 12.703125 0.78125 C 10.921875 0.78125 9.148438 0.617188 7.390625 0.296875 C 5.628906 -0.0234375 3.988281 -0.460938 2.46875 -1.015625 L 3.296875 -4.40625 C 5.492188 -2.820312 7.578125 -1.753906 9.546875 -1.203125 C 11.523438 -0.660156 13.253906 -0.390625 14.734375 -0.390625 C 16.835938 -0.390625 18.59375 -0.789062 20 -1.59375 C 21.40625 -2.40625 22.15625 -3.503906 22.25 -4.890625 C 22.25 -5.898438 21.882812 -6.832031 21.15625 -7.6875 C 20.4375 -8.539062 19.46875 -9.347656 18.25 -10.109375 C 17.039062 -10.867188 15.71875 -11.613281 14.28125 -12.34375 C 12.84375 -13.070312 11.40625 -13.804688 9.96875 -14.546875 C 8.53125 -15.285156 7.203125 -16.039062 5.984375 -16.8125 C 4.773438 -17.59375 3.804688 -18.421875 3.078125 -19.296875 C 2.347656 -20.171875 1.984375 -21.109375 1.984375 -22.109375 C 1.984375 -23.722656 2.601562 -25.019531 3.84375 -26 C 5.09375 -26.988281 6.71875 -27.707031 8.71875 -28.15625 C 10.726562 -28.613281 12.847656 -28.84375 15.078125 -28.84375 C 16.628906 -28.84375 18.203125 -28.742188 19.796875 -28.546875 C 21.398438 -28.359375 22.945312 -28.070312 24.4375 -27.6875 L 23.90625 -24.296875 C 22.769531 -25.003906 21.503906 -25.625 20.109375 -26.15625 C 18.722656 -26.6875 17.34375 -27.101562 15.96875 -27.40625 C 14.601562 -27.71875 13.320312 -27.875 12.125 -27.875 C 10.21875 -27.875 8.613281 -27.539062 7.3125 -26.875 C 6.019531 -26.21875 5.375 -25.226562 5.375 -23.90625 C 5.375 -23.09375 5.851562 -22.304688 6.8125 -21.546875 C 7.769531 -20.785156 9.003906 -20.023438 10.515625 -19.265625 C 12.035156 -18.515625 13.644531 -17.722656 15.34375 -16.890625 C 17.039062 -16.066406 18.648438 -15.171875 20.171875 -14.203125 C 21.691406 -13.234375 22.925781 -12.160156 23.875 -10.984375 C 24.832031 -9.804688 25.3125 -8.488281 25.3125 -7.03125 C 25.28125 -5.601562 24.890625 -4.394531 24.140625 -3.40625 C 23.398438 -2.425781 22.429688 -1.628906 21.234375 -1.015625 C 20.035156 -0.398438 18.703125 0.0507812 17.234375 0.34375 C 15.765625 0.632812 14.253906 0.78125 12.703125 0.78125 Z M 12.703125 0.78125 "/></g></g><g style="fill:#ffffff;fill-opacity:1;"><g transform="translate(27.863995, 51.674386)"><path style="stroke:none" d="M 13.234375 0.921875 C 11.617188 0.921875 10.078125 0.566406 8.609375 -0.140625 C 7.140625 -0.859375 5.941406 -1.898438 5.015625 -3.265625 C 4.097656 -4.640625 3.640625 -6.300781 3.640625 -8.25 L 3.640625 -27.34375 L 0.734375 -27.34375 L 0.734375 -28.03125 L 4.3125 -28.03125 C 5.507812 -29.351562 6.390625 -30.953125 6.953125 -32.828125 C 7.523438 -34.703125 7.8125 -36.722656 7.8125 -38.890625 L 8.4375 -38.890625 L 8.484375 -28.03125 L 15.90625 -28.03125 L 15.90625 -27.34375 L 8.484375 -27.34375 L 8.484375 -5.046875 C 8.484375 -3.265625 8.882812 -1.921875 9.6875 -1.015625 C 10.5 -0.109375 11.457031 0.34375 12.5625 0.34375 C 13.882812 0.34375 15.25 -0.285156 16.65625 -1.546875 C 18.0625 -2.804688 19.265625 -4.601562 20.265625 -6.9375 L 21.625 -3.96875 C 20.71875 -2.289062 19.492188 -1.054688 17.953125 -0.265625 C 16.421875 0.523438 14.847656 0.921875 13.234375 0.921875 Z M 13.234375 0.921875 "/></g></g><g style="fill:#ffffff;fill-opacity:1;"><g transform="translate(51.131306, 51.674386)"><path style="stroke:none" d="M 11.15625 0.78125 C 9.664062 0.78125 8.265625 0.472656 6.953125 -0.140625 C 5.648438 -0.753906 4.601562 -1.679688 3.8125 -2.921875 C 3.019531 -4.171875 2.625 -5.75 2.625 -7.65625 L 2.625 -28.03125 L 7.46875 -28.03125 L 7.46875 -6.15625 C 7.46875 -4.15625 7.953125 -2.671875 8.921875 -1.703125 C 9.890625 -0.734375 11.019531 -0.25 12.3125 -0.25 C 13.832031 -0.25 15.269531 -0.820312 16.625 -1.96875 C 17.988281 -3.113281 19.140625 -4.703125 20.078125 -6.734375 C 21.015625 -8.773438 21.609375 -11.101562 21.859375 -13.71875 L 21.859375 -28.03125 L 26.71875 -28.03125 L 26.71875 0 L 21.859375 0 L 21.859375 -9.984375 L 21.71875 -9.984375 C 20.8125 -6.554688 19.425781 -3.90625 17.5625 -2.03125 C 15.707031 -0.15625 13.570312 0.78125 11.15625 0.78125 Z M 11.15625 0.78125 "/></g></g><g style="fill:#ffffff;fill-opacity:1;"><g transform="translate(80.942312, 51.674386)"><path style="stroke:none" d="M 12.796875 0.734375 C 10.984375 0.734375 9.222656 0.222656 7.515625 -0.796875 C 5.804688 -1.816406 4.398438 -3.367188 3.296875 -5.453125 C 2.203125 -7.535156 1.65625 -10.160156 1.65625 -13.328125 C 1.65625 -16.628906 2.289062 -19.425781 3.5625 -21.71875 C 4.84375 -24.007812 6.597656 -25.753906 8.828125 -26.953125 C 11.054688 -28.148438 13.59375 -28.75 16.4375 -28.75 C 18.144531 -28.75 19.9375 -28.507812 21.8125 -28.03125 L 21.8125 -34.03125 L 26.671875 -34.03125 L 26.671875 0 L 21.8125 0 L 21.8125 -6.203125 C 21.070312 -3.878906 19.859375 -2.140625 18.171875 -0.984375 C 16.492188 0.160156 14.703125 0.734375 12.796875 0.734375 Z M 14.40625 -0.4375 C 16.113281 -0.4375 17.6875 -1.175781 19.125 -2.65625 C 20.5625 -4.144531 21.457031 -6.363281 21.8125 -9.3125 L 21.8125 -27.296875 C 20.363281 -27.679688 18.992188 -27.875 17.703125 -27.875 C 14.273438 -27.875 11.5 -26.617188 9.375 -24.109375 C 7.257812 -21.609375 6.203125 -18 6.203125 -13.28125 C 6.203125 -10.4375 6.597656 -8.0625 7.390625 -6.15625 C 8.179688 -4.25 9.207031 -2.816406 10.46875 -1.859375 C 11.726562 -0.910156 13.039062 -0.4375 14.40625 -0.4375 Z M 14.40625 -0.4375 "/></g></g><g style="fill:#ffffff;fill-opacity:1;"><g transform="translate(112.013749, 51.674386)"><path style="stroke:none" d="M 5.1875 -31.03125 C 4.445312 -31.03125 3.804688 -31.296875 3.265625 -31.828125 C 2.734375 -32.359375 2.46875 -33 2.46875 -33.75 C 2.46875 -34.488281 2.734375 -35.125 3.265625 -35.65625 C 3.804688 -36.1875 4.445312 -36.453125 5.1875 -36.453125 C 5.925781 -36.453125 6.5625 -36.1875 7.09375 -35.65625 C 7.632812 -35.125 7.90625 -34.488281 7.90625 -33.75 C 7.90625 -33 7.632812 -32.359375 7.09375 -31.828125 C 6.5625 -31.296875 5.925781 -31.03125 5.1875 -31.03125 Z M 7.609375 0 L 2.765625 0 L 2.765625 -28.03125 L 7.609375 -28.03125 Z M 7.609375 0 "/></g></g><g style="fill:#ffffff;fill-opacity:1;"><g transform="translate(122.532412, 51.674386)"><path style="stroke:none" d="M 15.21875 0.828125 C 12.375 0.828125 9.941406 0.210938 7.921875 -1.015625 C 5.898438 -2.242188 4.347656 -3.960938 3.265625 -6.171875 C 2.191406 -8.390625 1.65625 -10.972656 1.65625 -13.921875 C 1.65625 -16.921875 2.191406 -19.535156 3.265625 -21.765625 C 4.347656 -23.992188 5.898438 -25.726562 7.921875 -26.96875 C 9.941406 -28.21875 12.375 -28.84375 15.21875 -28.84375 C 17.96875 -28.84375 20.351562 -28.21875 22.375 -26.96875 C 24.394531 -25.726562 25.953125 -23.992188 27.046875 -21.765625 C 28.148438 -19.535156 28.703125 -16.921875 28.703125 -13.921875 C 28.703125 -10.972656 28.148438 -8.390625 27.046875 -6.171875 C 25.953125 -3.960938 24.394531 -2.242188 22.375 -1.015625 C 20.351562 0.210938 17.96875 0.828125 15.21875 0.828125 Z M 15.21875 0.140625 C 17.125 0.140625 18.734375 -0.519531 20.046875 -1.84375 C 21.359375 -3.164062 22.359375 -4.898438 23.046875 -7.046875 C 23.742188 -9.203125 24.09375 -11.492188 24.09375 -13.921875 C 24.09375 -15.691406 23.898438 -17.425781 23.515625 -19.125 C 23.128906 -20.820312 22.554688 -22.347656 21.796875 -23.703125 C 21.035156 -25.066406 20.101562 -26.148438 19 -26.953125 C 17.90625 -27.765625 16.644531 -28.171875 15.21875 -28.171875 C 13.707031 -28.171875 12.390625 -27.765625 11.265625 -26.953125 C 10.148438 -26.148438 9.222656 -25.066406 8.484375 -23.703125 C 7.742188 -22.347656 7.191406 -20.820312 6.828125 -19.125 C 6.472656 -17.425781 6.296875 -15.691406 6.296875 -13.921875 C 6.296875 -11.492188 6.617188 -9.203125 7.265625 -7.046875 C 7.921875 -4.898438 8.898438 -3.164062 10.203125 -1.84375 C 11.515625 -0.519531 13.1875 0.140625 15.21875 0.140625 Z M 15.21875 0.140625 "/></g></g></g><mask id="191bf86a63"><g filter="url(#6a6d879d5b)"><rect x="0" width="750" y="0" height="749.999995" style="fill:#000000;fill-opacity:0.75;stroke:none;"/></g></mask></g></g></svg>